<svg width="34" height="34" viewBox="0 0 34 34" fill="none" xmlns="http://www.w3.org/2000/svg">
<circle cx="17" cy="17" r="17" fill="#0047FF"/>
<path d="M17.9449 19.601C19.062 19.0067 19.9483 18.0558 20.4628 16.8997C20.9773 15.7436 21.0903 14.4487 20.7841 13.2209C20.4778 11.9931 19.7697 10.903 18.7725 10.124C17.7753 9.34503 16.5462 8.92188 15.2808 8.92188C14.0154 8.92188 12.7864 9.34503 11.7892 10.124C10.792 10.903 10.0839 11.9931 9.77762 13.2209C9.47134 14.4487 9.58442 15.7436 10.0989 16.8997C10.6133 18.0558 11.4996 19.0067 12.6168 19.601C10.7262 20.1364 9.01772 21.2476 7.66592 22.8572C7.58274 22.9624 7.54379 23.0958 7.55732 23.2292C7.57086 23.3626 7.63583 23.4854 7.73845 23.5717C7.84106 23.658 7.97326 23.701 8.10699 23.6914C8.24073 23.6819 8.3655 23.6206 8.45483 23.5206C10.22 21.4221 12.6434 20.2671 15.2808 20.2671C17.9183 20.2671 20.3426 21.4221 22.1051 23.5206C22.148 23.5748 22.2012 23.6198 22.2617 23.6529C22.3222 23.6861 22.3888 23.7068 22.4575 23.7137C22.5261 23.7207 22.5955 23.7138 22.6614 23.6935C22.7274 23.6732 22.7886 23.6398 22.8414 23.5954C22.8942 23.551 22.9376 23.4964 22.9689 23.4349C23.0003 23.3734 23.0189 23.3063 23.0239 23.2374C23.0288 23.1686 23.0198 23.0995 22.9975 23.0342C22.9752 22.9688 22.94 22.9087 22.894 22.8572C21.5422 21.2476 19.8355 20.1364 17.9449 19.601ZM10.6402 14.5952C10.6402 13.6774 10.9124 12.7801 11.4223 12.017C11.9322 11.2538 12.657 10.659 13.505 10.3078C14.3529 9.95656 15.286 9.86466 16.1862 10.0437C17.0864 10.2228 17.9133 10.6648 18.5623 11.3138C19.2113 11.9628 19.6532 12.7896 19.8323 13.6898C20.0114 14.59 19.9195 15.5231 19.5682 16.3711C19.217 17.219 18.6222 17.9438 17.859 18.4537C17.0959 18.9636 16.1987 19.2358 15.2808 19.2358C14.0505 19.2344 12.8709 18.7451 12.0009 17.8751C11.1309 17.0051 10.6416 15.8255 10.6402 14.5952ZM27.6765 17.3658L24.9265 20.1158C24.8298 20.2124 24.6987 20.2666 24.5621 20.2666C24.4255 20.2666 24.2944 20.2124 24.1977 20.1158L22.8227 18.7408C22.7316 18.6431 22.6821 18.5138 22.6844 18.3802C22.6868 18.2466 22.7409 18.1192 22.8354 18.0247C22.9298 17.9302 23.0573 17.8761 23.1909 17.8737C23.3244 17.8714 23.4537 17.921 23.5515 18.0121L24.5621 19.0218L26.9477 16.6371C26.9949 16.5864 27.0518 16.5458 27.1151 16.5176C27.1783 16.4894 27.2466 16.4742 27.3159 16.473C27.3851 16.4718 27.4539 16.4845 27.5181 16.5105C27.5823 16.5364 27.6406 16.575 27.6896 16.624C27.7385 16.6729 27.7771 16.7313 27.8031 16.7955C27.829 16.8597 27.8417 16.9284 27.8405 16.9977C27.8393 17.0669 27.8241 17.1352 27.7959 17.1984C27.7678 17.2617 27.7271 17.3186 27.6765 17.3658Z" fill="white"/>
</svg>
