<svg width="18" height="18" viewBox="0 0 18 18" fill="none" xmlns="http://www.w3.org/2000/svg">
<path fill-rule="evenodd" clip-rule="evenodd" d="M17.6809 8.93866C17.6809 13.8753 13.7229 17.8773 8.84043 17.8773C3.958 17.8773 0 13.8753 0 8.93866C0 4.00197 3.958 0 8.84043 0C11.1321 0 13.2201 0.881667 14.7908 2.32783L12.1802 5.06521L12.2049 5.09208C11.309 4.29036 10.1309 3.80369 8.84043 3.80369C6.03562 3.80369 3.76188 6.1027 3.76188 8.93866C3.76188 11.7746 6.03562 14.0736 8.84043 14.0736C10.9807 14.0736 12.8118 12.7349 13.5593 10.8405H8.84043V7.227H12.5731V7.26882L13.3589 7.26883H17.5269C17.628 7.80979 17.6809 8.36798 17.6809 8.93866Z" fill="#E9B71D"/>
<path fill-rule="evenodd" clip-rule="evenodd" d="M14.8211 15.5221C14.7038 15.6311 14.5836 15.7369 14.4606 15.8394L11.8854 13.3596L11.6391 13.2364C11.8608 13.0847 12.07 12.9157 12.2649 12.7313C12.8265 12.2124 13.2725 11.5677 13.5592 10.8412H8.84033V7.26953H12.5282V7.31135L13.3141 7.31135H17.482C17.5831 7.85233 17.636 8.41053 17.636 8.98123C17.636 11.5636 16.553 13.8903 14.8211 15.5221Z" fill="#4385F4"/>
<path fill-rule="evenodd" clip-rule="evenodd" d="M0.982422 4.79584L4.00495 7.26882L4.01443 7.26782C4.70008 5.25212 6.59178 3.80369 8.81807 3.80369C10.1085 3.80369 11.2866 4.29036 12.1825 5.09208L12.1578 5.06521L14.7684 2.32783C13.1977 0.881669 11.1097 0 8.81807 0C5.41427 0 2.45977 1.94504 0.982422 4.79584Z" fill="#DA4948"/>
<path fill-rule="evenodd" clip-rule="evenodd" d="M12.2369 12.8739C11.3357 13.6771 10.1509 14.162 8.8552 14.1557C6.59581 14.1446 4.68833 12.6434 4.03921 10.5775C3.61122 10.7721 1.97589 12.2076 1.19948 12.9123L1.00591 13.0887C2.46283 15.9665 5.41834 17.9426 8.83658 17.9593C10.9809 17.9698 12.9507 17.2075 14.4876 15.931L11.9486 13.4619L11.693 13.3326C11.9027 13.1945 12.1017 13.0412 12.2884 12.8742L12.2369 12.8739ZM16.7505 7.39522L17.5759 7.39926L17.5748 7.39346L16.7505 7.38943L16.7505 7.39522Z" fill="#36A563"/>
</svg>
