<svg width="47" height="28" viewBox="0 0 47 28" fill="none" xmlns="http://www.w3.org/2000/svg">
<rect width="47" height="28"/>
<path d="M-3029 815C-3029 813.895 -3028.1 813 -3027 813H3138C3139.1 813 3140 813.895 3140 815V5013C3140 5014.1 3139.1 5015 3138 5015H-3027C-3028.1 5015 -3029 5014.1 -3029 5013V815Z" fill="white"/>
<path d="M-3027 814H3138V812H-3027V814ZM3139 815V5013H3141V815H3139ZM3138 5014H-3027V5016H3138V5014ZM-3028 5013V815H-3030V5013H-3028ZM-3027 5014C-3027.55 5014 -3028 5013.55 -3028 5013H-3030C-3030 5014.66 -3028.66 5016 -3027 5016V5014ZM3139 5013C3139 5013.55 3138.55 5014 3138 5014V5016C3139.66 5016 3141 5014.66 3141 5013H3139ZM3138 814C3138.55 814 3139 814.448 3139 815H3141C3141 813.343 3139.66 812 3138 812V814ZM-3027 812C-3028.66 812 -3030 813.343 -3030 815H-3028C-3028 814.448 -3027.55 814 -3027 814V812Z" fill="black" fill-opacity="0.1"/>
<g clip-path="url(#clip0_0_1)">
<path d="M14 28C10.108 28 6.80167 26.6397 4.081 23.919C1.36033 21.1983 0 17.892 0 14C0 10.108 1.36033 6.80167 4.081 4.081C6.80167 1.36033 10.108 0 14 0C15.4093 0 16.7596 0.202223 18.0507 0.606667C19.3418 1.01111 20.5279 1.59756 21.609 2.366C20.013 3.88267 18.7794 5.64822 17.9083 7.66267C17.0372 9.68022 16.6017 11.7927 16.6017 14C16.6017 16.2073 17.0372 18.3198 17.9083 20.3373C18.7794 22.3549 20.0138 24.1204 21.6113 25.634C20.5287 26.404 19.3418 26.9904 18.0507 27.3933C16.7596 27.7978 15.4093 28 14 28ZM32.6667 28C31.2573 28 29.9079 27.7978 28.6183 27.3933C27.3288 26.9889 26.1411 26.4032 25.0553 25.6363C25.3587 25.361 25.6449 25.067 25.914 24.7543L26.7167 23.8187C27.5629 24.4051 28.4877 24.8593 29.491 25.1813C30.4943 25.5033 31.5529 25.6651 32.6667 25.6667C35.8944 25.6667 38.6462 24.5288 40.922 22.253C43.1978 19.9772 44.3349 17.2262 44.3333 14C44.3318 10.7738 43.1939 8.02278 40.9197 5.747C38.6454 3.47122 35.8944 2.33333 32.6667 2.33333C31.5513 2.33333 30.492 2.49511 29.4887 2.81867C28.4853 3.14222 27.5613 3.59644 26.7167 4.18133L25.914 3.248C25.6449 2.93533 25.3594 2.64056 25.0577 2.36367C26.1388 1.59522 27.3249 1.00956 28.616 0.606667C29.9087 0.202223 31.2589 0 32.6667 0C36.5587 0 39.865 1.36033 42.5857 4.081C45.3063 6.80167 46.6667 10.108 46.6667 14C46.6667 17.892 45.3063 21.1983 42.5857 23.919C39.865 26.6397 36.5587 28 32.6667 28ZM23.3333 24.3647C21.8649 23.058 20.72 21.5024 19.8987 19.698C19.0773 17.8936 18.6667 15.9942 18.6667 14C18.6667 12.0058 19.0773 10.1064 19.8987 8.302C20.72 6.49755 21.8649 4.942 23.3333 3.63533C24.8018 4.942 25.9467 6.49755 26.768 8.302C27.5893 10.1064 28 12.0058 28 14C28 15.9942 27.5893 17.8936 26.768 19.698C25.9467 21.5024 24.8018 23.058 23.3333 24.3647Z" fill="#0047FF"/>
</g>
<defs>
<clipPath id="clip0_0_1">
<rect width="47" height="28" fill="white"/>
</clipPath>
</defs>
</svg>
