<svg width="183" height="56" viewBox="0 0 183 56" fill="none" xmlns="http://www.w3.org/2000/svg">
<path d="M76.8501 17.7607V33.15C76.8501 34.5733 76.5174 35.8276 75.8518 36.9129C75.1863 37.988 74.2545 38.8225 73.0566 39.4164C71.8586 40.0102 70.4814 40.3072 68.9251 40.3072C67.5121 40.3072 66.2424 40.0614 65.1161 39.57C64.0001 39.0682 63.1195 38.3054 62.4744 37.2815C61.8294 36.2576 61.512 34.9828 61.5222 33.4572H66.7441C66.7749 34.3275 67.0052 34.9982 67.4353 35.4692C67.8756 35.93 68.4746 36.1603 69.2322 36.1603C70.0207 36.1603 70.6248 35.9095 71.0446 35.4078C71.4746 34.8958 71.6896 34.1432 71.6896 33.15V17.7607H76.8501ZM87.9391 40.3072C86.2292 40.3072 84.7394 39.9488 83.4697 39.2321C82.2103 38.5153 81.2427 37.5119 80.5669 36.2218C79.8912 34.9214 79.5533 33.4163 79.5533 31.7063C79.5533 29.9964 79.8912 28.4964 80.5669 27.2062C81.2427 25.9059 82.2103 24.8973 83.4697 24.1806C84.7394 23.4638 86.2292 23.1055 87.9391 23.1055C89.649 23.1055 91.1337 23.4638 92.3931 24.1806C93.6628 24.8973 94.6355 25.9059 95.3113 27.2062C95.987 28.4964 96.3249 29.9964 96.3249 31.7063C96.3249 33.4163 95.987 34.9214 95.3113 36.2218C94.6355 37.5119 93.6628 38.5153 92.3931 39.2321C91.1337 39.9488 89.649 40.3072 87.9391 40.3072ZM87.9698 36.4061C88.6149 36.4061 89.1678 36.2115 89.6286 35.8224C90.0893 35.4231 90.4374 34.8651 90.6729 34.1483C90.9187 33.4316 91.0415 32.6074 91.0415 31.6756C91.0415 30.7438 90.9187 29.9196 90.6729 29.2029C90.4374 28.4861 90.0893 27.9332 89.6286 27.5441C89.1678 27.1448 88.6149 26.9451 87.9698 26.9451C86.9766 26.9451 86.2036 27.3752 85.6507 28.2353C85.108 29.0953 84.8366 30.2421 84.8366 31.6756C84.8366 33.1091 85.108 34.2559 85.6507 35.1159C86.2036 35.976 86.9766 36.4061 87.9698 36.4061ZM98.9973 23.3205H104.189V40H98.9973V23.3205ZM101.608 21.3239C101.127 21.3239 100.682 21.2164 100.272 21.0013C99.8625 20.7761 99.5349 20.474 99.2892 20.0952C99.0537 19.7061 98.9359 19.2863 98.9359 18.8358C98.9359 18.3852 99.0537 17.9706 99.2892 17.5917C99.5349 17.2026 99.8625 16.9006 100.272 16.6855C100.682 16.4603 101.127 16.3477 101.608 16.3477C102.09 16.3477 102.535 16.4603 102.945 16.6855C103.364 16.9006 103.697 17.2026 103.943 17.5917C104.189 17.9706 104.311 18.3852 104.311 18.8358C104.311 19.2863 104.189 19.7061 103.943 20.0952C103.697 20.474 103.364 20.7761 102.945 21.0013C102.535 21.2164 102.09 21.3239 101.608 21.3239ZM112.697 40H107.506V23.3205H112.421V26.3615H112.605C112.994 25.3376 113.629 24.5389 114.51 23.9656C115.4 23.3922 116.455 23.1055 117.673 23.1055C118.83 23.1055 119.844 23.3666 120.714 23.8888C121.595 24.4007 122.271 25.1328 122.742 26.085C123.223 27.027 123.459 28.1226 123.448 29.3718V40H118.288V30.3548C118.288 29.4128 118.047 28.6755 117.566 28.1431C117.085 27.6107 116.414 27.3445 115.554 27.3445C114.684 27.3445 113.987 27.6209 113.465 28.1738C112.953 28.7267 112.697 29.4844 112.697 30.4469V40ZM145.473 17.7607V32.1056C145.473 33.7439 145.078 35.1825 144.29 36.4214C143.512 37.6604 142.416 38.6177 141.003 39.2935C139.59 39.9693 137.957 40.3072 136.104 40.3072C134.24 40.3072 132.602 39.9693 131.189 39.2935C129.776 38.6177 128.681 37.6604 127.902 36.4214C127.124 35.1825 126.735 33.7439 126.735 32.1056V17.7607H131.957V31.6756C131.957 32.4538 132.131 33.15 132.479 33.7644C132.827 34.3787 133.314 34.86 133.938 35.2081C134.573 35.5562 135.295 35.7303 136.104 35.7303C136.913 35.7303 137.629 35.5562 138.254 35.2081C138.879 34.86 139.36 34.3787 139.698 33.7644C140.046 33.15 140.22 32.4538 140.22 31.6756V17.7607H145.473ZM160.862 24.3649C160.801 23.5458 160.473 22.9109 159.879 22.4604C159.285 22.0099 158.456 21.7846 157.391 21.7846C156.357 21.7846 155.558 21.9894 154.995 22.399C154.442 22.8085 154.166 23.341 154.166 23.9963C154.166 24.6311 154.452 25.1431 155.026 25.5321C155.599 25.911 156.418 26.2182 157.483 26.4537L159.418 26.9144C161.609 27.4059 163.284 28.1994 164.441 29.295C165.608 30.3906 166.197 31.8087 166.207 33.5494C166.197 34.9419 165.838 36.145 165.132 37.1586C164.435 38.1723 163.427 38.9505 162.106 39.4932C160.795 40.0358 159.224 40.3072 157.391 40.3072C155.527 40.3072 153.91 40.0256 152.538 39.4624C151.176 38.8891 150.116 38.0341 149.358 36.8975C148.601 35.761 148.206 34.3583 148.176 32.6893H153.213C153.275 33.7439 153.669 34.5528 154.396 35.1159C155.133 35.6689 156.111 35.9453 157.33 35.9453C158.415 35.9453 159.275 35.7252 159.91 35.2849C160.545 34.8446 160.872 34.2661 160.893 33.5494C160.883 32.9145 160.591 32.4077 160.017 32.0289C159.444 31.65 158.528 31.3172 157.268 31.0305L154.934 30.4776C150.817 29.5254 148.759 27.4776 148.759 24.3342C148.749 22.9826 149.113 21.7846 149.85 20.7402C150.597 19.6958 151.626 18.887 152.937 18.3136C154.258 17.7402 155.753 17.4535 157.422 17.4535C159.111 17.4535 160.591 17.7453 161.86 18.3289C163.13 18.9023 164.113 19.7112 164.809 20.7556C165.516 21.8 165.879 23.0031 165.9 24.3649H160.862ZM174.501 33.2115H170.108L169.647 17.7607H174.961L174.501 33.2115ZM172.289 40.3072C171.787 40.3072 171.321 40.1843 170.891 39.9386C170.461 39.6928 170.123 39.3549 169.878 38.9249C169.632 38.4949 169.514 38.0239 169.524 37.5119C169.514 37.0204 169.632 36.5648 169.878 36.145C170.123 35.7252 170.461 35.3924 170.891 35.1467C171.321 34.9009 171.787 34.7781 172.289 34.7781C172.77 34.7781 173.221 34.9009 173.64 35.1467C174.07 35.3924 174.414 35.7252 174.669 36.145C174.936 36.5648 175.074 37.0204 175.084 37.5119C175.074 38.0239 174.941 38.4949 174.685 38.9249C174.429 39.3447 174.086 39.6826 173.656 39.9386C173.226 40.1843 172.77 40.3072 172.289 40.3072Z" fill="black"/>
<path d="M18.6665 42C14.7745 42 11.4682 40.6397 8.7475 37.919C6.02684 35.1983 4.6665 31.892 4.6665 28C4.6665 24.108 6.02684 20.8017 8.7475 18.081C11.4682 15.3603 14.7745 14 18.6665 14C20.0758 14 21.4261 14.2022 22.7172 14.6067C24.0083 15.0111 25.1944 15.5976 26.2755 16.366C24.6795 17.8827 23.446 19.6482 22.5748 21.6627C21.7037 23.6802 21.2682 25.7927 21.2682 28C21.2682 30.2073 21.7037 32.3198 22.5748 34.3373C23.446 36.3549 24.6803 38.1204 26.2778 39.634C25.1952 40.404 24.0083 40.9904 22.7172 41.3933C21.4261 41.7978 20.0758 42 18.6665 42ZM37.3332 42C35.9238 42 34.5744 41.7978 33.2848 41.3933C31.9953 40.9889 30.8076 40.4032 29.7218 39.6363C30.0252 39.361 30.3114 39.067 30.5805 38.7543L31.3832 37.8187C32.2294 38.4051 33.1542 38.8593 34.1575 39.1813C35.1608 39.5033 36.2194 39.6651 37.3332 39.6667C40.561 39.6667 43.3127 38.5288 45.5885 36.253C47.8643 33.9772 49.0014 31.2262 48.9998 28C48.9983 24.7738 47.8604 22.0228 45.5862 19.747C43.312 17.4712 40.561 16.3333 37.3332 16.3333C36.2178 16.3333 35.1585 16.4951 34.1552 16.8187C33.1518 17.1422 32.2278 17.5964 31.3832 18.1813L30.5805 17.248C30.3114 16.9353 30.026 16.6406 29.7242 16.3637C30.8053 15.5952 31.9914 15.0096 33.2825 14.6067C34.5752 14.2022 35.9254 14 37.3332 14C41.2252 14 44.5315 15.3603 47.2522 18.081C49.9728 20.8017 51.3332 24.108 51.3332 28C51.3332 31.892 49.9728 35.1983 47.2522 37.919C44.5315 40.6397 41.2252 42 37.3332 42ZM27.9998 38.3647C26.5314 37.058 25.3865 35.5024 24.5652 33.698C23.7438 31.8936 23.3332 29.9942 23.3332 28C23.3332 26.0058 23.7438 24.1064 24.5652 22.302C25.3865 20.4976 26.5314 18.942 27.9998 17.6353C29.4683 18.942 30.6132 20.4976 31.4345 22.302C32.2558 24.1064 32.6665 26.0058 32.6665 28C32.6665 29.9942 32.2558 31.8936 31.4345 33.698C30.6132 35.5024 29.4683 37.058 27.9998 38.3647Z" fill="#0047FF"/>
</svg>
