<svg width="34" height="34" viewBox="0 0 34 34" fill="none" xmlns="http://www.w3.org/2000/svg">
<circle cx="17" cy="17" r="17" fill="#0047FF"/>
<path d="M25.4133 11.0109L17.1633 8.26091C17.0573 8.22553 16.9427 8.22553 16.8367 8.26091L8.58672 11.0109C8.48412 11.0452 8.3949 11.1108 8.33166 11.1986C8.26843 11.2863 8.2344 11.3917 8.23438 11.4999V18.3749C8.23438 18.5116 8.2887 18.6428 8.3854 18.7395C8.4821 18.8362 8.61325 18.8905 8.75 18.8905C8.88675 18.8905 9.0179 18.8362 9.1146 18.7395C9.2113 18.6428 9.26563 18.5116 9.26563 18.3749V12.2149L12.5897 13.3235C12.1705 13.943 11.8865 14.6438 11.756 15.3803C11.6256 16.1168 11.6517 16.8726 11.8326 17.5983C12.0135 18.3241 12.3453 19.0036 12.8062 19.5927C13.2671 20.1818 13.8469 20.6673 14.5078 21.0175C12.8535 21.5786 11.4141 22.701 10.3828 24.2831C10.3235 24.3966 10.3086 24.5282 10.341 24.6521C10.3734 24.776 10.4507 24.8834 10.558 24.9535C10.6652 25.0235 10.7947 25.0511 10.9212 25.0309C11.0476 25.0107 11.1621 24.9442 11.2422 24.8443C12.5716 22.8084 14.6694 21.6405 17 21.6405C19.3306 21.6405 21.4284 22.8084 22.7578 24.8443C22.8374 24.9463 22.9525 25.0147 23.0802 25.0358C23.208 25.0569 23.3389 25.0292 23.4472 24.9582C23.5554 24.8872 23.633 24.7781 23.6645 24.6526C23.696 24.527 23.6791 24.3942 23.6172 24.2805C22.5859 22.701 21.1482 21.5786 19.4922 21.0149C20.1528 20.6643 20.7321 20.1786 21.1926 19.5893C21.6531 19 21.9844 18.3204 22.1649 17.5947C22.3454 16.869 22.3712 16.1134 22.2404 15.377C22.1097 14.6407 21.8254 13.9401 21.406 13.3209L25.4133 11.9889C25.5158 11.9546 25.605 11.8889 25.6682 11.8012C25.7313 11.7134 25.7653 11.608 25.7653 11.4999C25.7653 11.3918 25.7313 11.2864 25.6682 11.1986C25.605 11.1109 25.5158 11.0452 25.4133 11.0109ZM21.2969 16.3124C21.2972 16.9971 21.1339 17.6719 20.8205 18.2807C20.5072 18.8895 20.0529 19.4146 19.4955 19.8122C18.9381 20.2099 18.2938 20.4686 17.6162 20.5668C16.9386 20.6649 16.2473 20.5998 15.6 20.3767C14.9526 20.1536 14.368 19.779 13.8947 19.2842C13.4215 18.7894 13.0733 18.1887 12.8793 17.5321C12.6853 16.8755 12.6509 16.182 12.7792 15.5094C12.9074 14.8368 13.1946 14.2046 13.6166 13.6655L16.8367 14.7389C16.9427 14.7743 17.0573 14.7743 17.1633 14.7389L20.3834 13.6655C20.9762 14.4204 21.2979 15.3526 21.2969 16.3124ZM17 13.7068L10.3828 11.4999L17 9.29302L23.6172 11.4999L17 13.7068Z" fill="white"/>
</svg>
