<svg width="34" height="34" viewBox="0 0 34 34" fill="none" xmlns="http://www.w3.org/2000/svg">
<circle cx="17" cy="17" r="17" fill="#0047FF"/>
<path d="M17.9449 20.2885C19.062 19.6942 19.9483 18.7433 20.4628 17.5872C20.9773 16.4311 21.0903 15.1362 20.7841 13.9084C20.4778 12.6806 19.7697 11.5905 18.7725 10.8115C17.7753 10.0325 16.5462 9.60938 15.2808 9.60938C14.0154 9.60938 12.7864 10.0325 11.7892 10.8115C10.792 11.5905 10.0839 12.6806 9.77762 13.9084C9.47134 15.1362 9.58442 16.4311 10.0989 17.5872C10.6133 18.7433 11.4996 19.6942 12.6168 20.2885C10.7262 20.8231 9.01772 21.9342 7.66592 23.5439C7.58274 23.649 7.54379 23.7824 7.55732 23.9158C7.57086 24.0492 7.63583 24.1721 7.73845 24.2584C7.84106 24.3447 7.97326 24.3876 8.10699 24.3781C8.24073 24.3685 8.3655 24.3073 8.45483 24.2073C10.22 22.1096 12.6434 20.9537 15.2808 20.9537C17.9183 20.9537 20.3426 22.1096 22.1051 24.2073C22.148 24.2614 22.2012 24.3064 22.2617 24.3396C22.3222 24.3727 22.3888 24.3934 22.4575 24.4004C22.5261 24.4073 22.5955 24.4005 22.6614 24.3801C22.7274 24.3598 22.7886 24.3264 22.8414 24.282C22.8942 24.2376 22.9376 24.183 22.9689 24.1215C23.0003 24.0601 23.0189 23.9929 23.0239 23.9241C23.0288 23.8552 23.0198 23.7861 22.9975 23.7208C22.9752 23.6555 22.94 23.5953 22.894 23.5439C21.5422 21.9342 19.8355 20.8231 17.9449 20.2885ZM10.6402 15.2818C10.6402 14.364 10.9124 13.4668 11.4223 12.7036C11.9322 11.9405 12.657 11.3457 13.505 10.9944C14.3529 10.6432 15.286 10.5513 16.1862 10.7304C17.0864 10.9094 17.9133 11.3514 18.5623 12.0004C19.2113 12.6494 19.6532 13.4763 19.8323 14.3765C20.0114 15.2767 19.9195 16.2097 19.5682 17.0577C19.217 17.9057 18.6222 18.6304 17.859 19.1404C17.0959 19.6503 16.1987 19.9224 15.2808 19.9224C14.0505 19.9211 12.8709 19.4317 12.0009 18.5617C11.1309 17.6917 10.6416 16.5122 10.6402 15.2818ZM23.6615 11.706C24.1423 12.8368 24.3902 14.053 24.3902 15.2818C24.3902 16.5106 24.1423 17.7269 23.6615 18.8577C23.6014 18.973 23.5 19.0614 23.3776 19.1052C23.2551 19.1489 23.1207 19.1448 23.0011 19.0936C22.8816 19.0424 22.7858 18.948 22.733 18.8292C22.6801 18.7104 22.6741 18.576 22.7162 18.4529C23.1426 17.4501 23.3623 16.3715 23.3623 15.2818C23.3623 14.1921 23.1426 13.1136 22.7162 12.1107C22.6741 11.9877 22.6801 11.8533 22.733 11.7345C22.7858 11.6157 22.8816 11.5212 23.0011 11.47C23.1207 11.4188 23.2551 11.4147 23.3776 11.4585C23.5 11.5022 23.6014 11.5906 23.6615 11.706ZM27.1402 15.2818C27.1433 16.8881 26.8181 18.4781 26.1846 19.9542C26.1254 20.0715 26.0237 20.1617 25.9002 20.2065C25.7768 20.2513 25.6409 20.2473 25.5203 20.1953C25.3997 20.1433 25.3035 20.0473 25.2512 19.9268C25.199 19.8063 25.1947 19.6704 25.2393 19.5469C25.8149 18.1986 26.1116 16.7478 26.1116 15.2818C26.1116 13.8158 25.8149 12.365 25.2393 11.0167C25.1947 10.8932 25.199 10.7573 25.2512 10.6368C25.3035 10.5163 25.3997 10.4203 25.5203 10.3683C25.6409 10.3164 25.7768 10.3124 25.9002 10.3572C26.0237 10.402 26.1254 10.4922 26.1846 10.6094C26.8181 12.0855 27.1433 13.6755 27.1402 15.2818Z" fill="white"/>
</svg>
